<svg xmlns="http://www.w3.org/2000/svg" viewBox="0 0 319.32 249.42"><defs><style>.cls-1{fill:#5e57aa;}</style></defs><g id="Layer_2" data-name="Layer 2"><g id="Layer_1-2" data-name="Layer 1"><path class="cls-1" d="M147.92,168.27H63.63a1.1,1.1,0,0,1-.87-.43l-3.87-5.16L54,156.17l-5.8-7.71-4.75-6.32L10.16,97.87A1.07,1.07,0,0,1,11,96.15H99.67a1.07,1.07,0,0,1,.89.46L124.28,131l5,7.29,7.14,10.35L142.2,157l6.61,9.59A1.08,1.08,0,0,1,147.92,168.27Z"/><path class="cls-1" d="M63.75,167l-4.82-6.41-2.18-2.9-2.88-3.83-.51-.67L11.5,97.46H99.55L147.46,167Z"/><path class="cls-1" d="M171.52,168.27h84.3a1.07,1.07,0,0,0,.86-.43l3.88-5.16,4.89-6.51,5.81-7.71,4.75-6.32,33.28-44.27a1.07,1.07,0,0,0-.86-1.72H219.77a1.1,1.1,0,0,0-.89.46L195.17,131l-5,7.29L183,148.64,177.25,157l-6.61,9.59A1.07,1.07,0,0,0,171.52,168.27Z"/><path class="cls-1" d="M172,167,219.9,97.46h88l-41.86,55.68-.51.67-2.88,3.83-2.18,2.9L255.7,167Z"/><path class="cls-1" d="M278.15,165.19c0,3.69-4.57,5.38-11.43,6.8a234.32,234.32,0,0,1-25.1,3.25c-21.9,1.9-51,2.95-82,2.95s-60-1.05-82-2.95A234.68,234.68,0,0,1,52.6,172c-6.86-1.42-11.42-3.11-11.42-6.8,0-3.3,3.41-5.28,12.65-7l4,5.26a68.57,68.57,0,0,0-8.3,1.79,82.62,82.62,0,0,0,11.34,2.25c4.81.71,11.21,1.44,19.75,2.14l1.46.12c21.24,1.69,48.81,2.62,77.62,2.62s56.38-.93,77.63-2.62l1.46-.12c5.27-.43,9.72-.88,13.49-1.32,1.62-.19,3.11-.38,4.48-.57h0l1.83-.25a83.76,83.76,0,0,0,11.28-2.25,67.5,67.5,0,0,0-8.25-1.78l4-5.27C274.75,159.91,278.15,161.89,278.15,165.19Z"/><path class="cls-1" d="M294.06,165.19c0,3.18-3.65,5.8-11.48,8.25-6.77,2.12-16.44,4-28.73,5.64-25.17,3.33-58.62,5.17-94.19,5.17s-69-1.84-94.18-5.17c-12.29-1.62-22-3.52-28.74-5.64-7.83-2.45-11.47-5.07-11.47-8.25,0-2.67,2.67-5,8.16-7.1a102.87,102.87,0,0,1,17-4.42l2,2.62c-23.54,4.27-24.23,8.43-24.23,8.9,0,.62,1.06,6.14,37.66,11,25,3.31,58.36,5.13,93.8,5.13s68.76-1.82,93.8-5.13c36.61-4.85,37.66-10.37,37.66-11,0-.46-.69-4.63-24.17-8.9l2-2.61a101.61,101.61,0,0,1,17.18,4.49C291.45,160.26,294.06,162.56,294.06,165.19Z"/><path class="cls-1" d="M306.51,165.19c0,4-4,7.74-11.92,11.2-7.41,3.24-18,6.15-31.48,8.64-27.64,5.12-64.38,7.94-103.45,7.94S83.85,190.15,56.21,185c-13.47-2.49-24.06-5.4-31.47-8.64-7.91-3.46-11.92-7.23-11.92-11.2,0-8.29,17.45-14.14,33-17.69l1,1.28c-20.68,4.67-32.5,10.62-32.5,16.41,0,6.73,15.38,13.44,42.2,18.4,27.55,5.1,64.2,7.91,103.18,7.91s75.63-2.81,103.19-7.91c26.81-5,42.19-11.67,42.19-18.4,0-5.78-11.8-11.73-32.45-16.4l1-1.29C289.09,151.06,306.51,156.91,306.51,165.19Z"/><path class="cls-1" d="M319.32,165.19c0,9.2-16.67,17.79-46.94,24.2-30.11,6.38-70.14,9.89-112.72,9.89S77.06,195.77,47,189.39C16.68,183,0,174.39,0,165.19c0-8.62,14.82-16.79,41.79-23.05l.48.63C15.47,149,.74,156.91.74,165.19c0,4.4,4.14,8.71,12.31,12.8,8,4,19.45,7.6,34.05,10.68,30.06,6.37,70,9.87,112.56,9.87s82.5-3.5,112.57-9.87c14.59-3.08,26-6.68,34-10.68,8.17-4.09,12.31-8.4,12.31-12.8,0-8.27-14.72-16.21-41.48-22.4l.47-.64h0C304.52,148.41,319.32,156.58,319.32,165.19Z"/><path class="cls-1" d="M25.14,244.25,15.9,224l-5.55,21.24-6-.31,8.27-27.76A3.47,3.47,0,0,1,16,214.26q1.83-.07,3.29,3.2L28.5,238l11.27-19.55q1.78-3.08,3.61-2.81a3.44,3.44,0,0,1,3,3.15l5.35,28.51-6-.31-3.32-21.7L31.15,244.56a3.24,3.24,0,0,1-3,1.9A3.38,3.38,0,0,1,25.14,244.25Z"/><path class="cls-1" d="M72.08,242.59l21.15.66-.17,5.33-26.47-.82.94-30.66,26.48.82-.17,5.33L72.7,222.6Zm20.18-12.26-.16,5.33-17.53-.54.17-5.33Z"/><path class="cls-1" d="M144,249.4l-7.88-.1-8.47-8.73-11.51-.15.06-5.33,14.34.19a8.09,8.09,0,0,0,5.73-1.76,5.11,5.11,0,0,0,1.64-4.08q-.24-5.46-7.23-5.55l-17.49-.23L112.89,249l-5.33-.07.39-30.67,22,.29q6.94.09,10.49,3.5a10.05,10.05,0,0,1,3.06,7.47,9.84,9.84,0,0,1-2,6.38,11.56,11.56,0,0,1-6.63,4.14Z"/><path class="cls-1" d="M163.52,249.39l-5.33,0L158,218.75l5.33,0Zm17.79-.09,7.89,0-18.37-14.92,18.22-15.75-7.89,0L166,231.76a3.58,3.58,0,0,0-1.52,2.48,3.54,3.54,0,0,0,1.55,2.43Z"/><path class="cls-1" d="M207,243.63l21.15-.46.12,5.33-26.49.57-.66-30.66,26.49-.57.11,5.33-21.15.45Zm19.51-13.31.11,5.33-17.52.38-.12-5.33Z"/><path class="cls-1" d="M257.88,222.14l1,25.32-5.33.21-1-25.32-12.11.45-.2-5.32,29.5-1.12.2,5.33Z"/><path class="cls-1" d="M289.09,246.11l-5.32.3-1.72-30.62,5.33-.3Zm19.39-19.19-.7-12.57,5.32-.3,1.71,30.63-5.32.29-.71-12.73-18,1-.29-5.33Z"/><path class="cls-1" d="M158.41,56.06V2.49a2.49,2.49,0,0,0-4.62-1.27L109.58,75.4a1.82,1.82,0,0,0,2.29,2.6l45-19.66A2.5,2.5,0,0,0,158.41,56.06Z"/><path class="cls-1" d="M109.67,86.05l45,26.74a2.49,2.49,0,0,0,3.76-2.13l0-46.08a2.49,2.49,0,0,0-3.52-2.26l-45,20.51A1.82,1.82,0,0,0,109.67,86.05Z"/><path class="cls-1" d="M157.21,124.58,113.76,99.22a1.82,1.82,0,0,0-2.42,2.61l42.6,61.59a2.48,2.48,0,0,0,4.53-1.41l0-35.28A2.51,2.51,0,0,0,157.21,124.58Z"/><path class="cls-1" d="M160.93,56.06V2.49a2.49,2.49,0,0,1,4.62-1.27L209.76,75.4a1.82,1.82,0,0,1-2.3,2.6l-45-19.66A2.48,2.48,0,0,1,160.93,56.06Z"/><path class="cls-1" d="M209.66,86.05l-45,26.74a2.48,2.48,0,0,1-3.75-2.13l0-46.08a2.48,2.48,0,0,1,3.51-2.26l45.05,20.51A1.82,1.82,0,0,1,209.66,86.05Z"/><path class="cls-1" d="M162.13,124.58l43.45-25.36a1.82,1.82,0,0,1,2.42,2.61l-42.6,61.59a2.48,2.48,0,0,1-4.53-1.41l0-35.28A2.49,2.49,0,0,1,162.13,124.58Z"/></g></g></svg>
