<?xml version="1.0" encoding="utf-8"?>
<svg viewBox="0 0 319.32 249.42" xmlns="http://www.w3.org/2000/svg" xmlns:bx="https://boxy-svg.com">
  <defs>
    <style>.cls-1{fill:#5e57aa;}</style>
  </defs>
  <g id="Layer_2" data-name="Layer 2">
    <g id="Layer_1-2" data-name="Layer 1">
      <path class="cls-1" d="M 148.73 159.77 L 92.47 159.77 C 92.243 159.769 92.028 159.665 91.89 159.489 L 89.307 156.122 L 86.043 151.875 L 82.171 146.845 L 79.001 142.722 L 56.781 113.841 C 56.447 113.414 56.711 112.793 57.257 112.724 C 57.285 112.721 57.313 112.719 57.342 112.719 L 116.525 112.719 C 116.762 112.716 116.985 112.828 117.12 113.019 L 132.952 135.454 L 136.289 140.21 L 141.055 146.962 L 144.912 152.417 L 149.324 158.673 C 149.633 159.125 149.326 159.733 148.772 159.768 C 148.758 159.769 148.744 159.769 148.73 159.77 Z" style="" bx:origin="1.08138 0.04848"/>
      <path class="cls-1" d="M 92.55 158.941 L 89.333 154.759 L 87.878 152.867 L 85.956 150.369 L 85.616 149.931 L 57.676 113.573 L 116.445 113.573 L 148.423 158.941 L 92.55 158.941 Z" style="" bx:origin="1.094515 0.031453"/>
      <path class="cls-1" d="M 164.482 159.77 L 220.749 159.77 C 220.975 159.77 221.188 159.666 221.323 159.489 L 223.913 156.122 L 227.177 151.875 L 231.055 146.845 L 234.225 142.722 L 256.438 113.841 C 256.772 113.414 256.508 112.793 255.963 112.724 C 255.93 112.72 255.897 112.718 255.864 112.719 L 196.687 112.719 C 196.451 112.72 196.23 112.831 196.093 113.019 L 180.268 135.454 L 176.93 140.21 L 172.145 146.962 L 168.307 152.417 L 163.895 158.673 C 163.582 159.115 163.875 159.723 164.422 159.767 C 164.442 159.769 164.462 159.77 164.482 159.77 Z" style="" bx:origin="-0.072904 0.048484"/>
      <path class="cls-1" d="M 164.803 158.941 L 196.774 113.573 L 255.51 113.573 L 227.57 149.899 L 227.23 150.336 L 225.308 152.835 L 223.853 154.726 L 220.669 158.941 L 164.803 158.941 Z" style="" bx:origin="-0.086024 0.031453"/>
      <path class="cls-1" d="M 235.653 157.76 C 235.653 160.168 232.603 161.27 228.024 162.197 C 222.483 163.198 216.89 163.905 211.271 164.317 C 196.654 165.556 177.231 166.241 156.54 166.241 C 135.848 166.241 116.492 165.556 101.808 164.317 C 96.207 163.905 90.632 163.2 85.108 162.203 C 80.53 161.276 77.486 160.174 77.486 157.766 C 77.486 155.614 79.762 154.322 85.929 153.199 L 88.599 156.631 C 86.73 156.909 84.879 157.299 83.059 157.799 C 85.544 158.461 88.073 158.951 90.628 159.267 C 93.839 159.731 98.11 160.207 103.81 160.663 L 104.785 160.741 C 118.962 161.844 137.364 162.451 156.593 162.451 C 175.822 162.451 194.224 161.844 208.408 160.741 L 209.382 160.663 C 212.9 160.383 215.87 160.089 218.386 159.802 C 219.467 159.678 220.462 159.554 221.376 159.431 L 222.598 159.267 C 225.139 158.947 227.655 158.456 230.127 157.799 C 228.318 157.3 226.479 156.913 224.62 156.638 L 227.29 153.199 C 233.384 154.316 235.653 155.607 235.653 157.76 Z" style="" bx:origin="0.502722 -2.928926"/>
      <path class="cls-1" d="M 246.273 157.76 C 246.273 159.834 243.836 161.544 238.61 163.142 C 234.091 164.525 227.637 165.752 219.434 166.822 C 202.634 168.994 180.308 170.195 156.566 170.195 C 132.825 170.195 110.512 168.994 93.705 166.822 C 85.502 165.765 79.021 164.525 74.522 163.142 C 69.296 161.544 66.867 159.834 66.867 157.76 C 66.867 156.018 68.649 154.498 72.313 153.128 C 76.004 151.853 79.8 150.888 83.66 150.245 L 84.995 151.953 C 69.283 154.739 68.822 157.453 68.822 157.76 C 68.822 158.165 69.53 161.766 93.959 164.937 C 110.645 167.096 132.912 168.283 156.566 168.283 C 180.221 168.283 202.461 167.096 219.174 164.937 C 243.609 161.773 244.31 158.171 244.31 157.76 C 244.31 157.46 243.85 154.739 228.178 151.953 L 229.513 150.251 C 233.415 150.899 237.252 151.879 240.98 153.18 C 244.531 154.543 246.273 156.044 246.273 157.76 Z" style="" bx:origin="0.502397 -1.766667"/>
      <path class="cls-1" d="M 254.582 157.76 C 254.582 160.37 251.913 162.81 246.626 165.067 C 241.68 167.181 234.612 169.079 225.615 170.704 C 207.166 174.044 182.644 175.884 156.566 175.884 C 130.489 175.884 105.966 174.044 87.518 170.684 C 78.527 169.059 71.459 167.161 66.513 165.047 C 61.233 162.79 58.557 160.331 58.557 157.741 C 58.557 152.332 70.204 148.516 80.583 146.199 L 81.25 147.035 C 67.447 150.081 59.558 153.963 59.558 157.741 C 59.558 162.131 69.823 166.508 87.725 169.745 C 106.113 173.072 130.575 174.906 156.593 174.906 C 182.61 174.906 207.073 173.072 225.468 169.745 C 243.362 166.483 253.628 162.131 253.628 157.741 C 253.628 153.97 245.752 150.088 231.969 147.041 L 232.636 146.199 C 242.955 148.542 254.582 152.358 254.582 157.76 Z" style="" bx:origin="0.502196 -1.051003"/>
      <path class="cls-1" d="M 263.133 157.76 C 263.133 163.762 252.006 169.366 231.802 173.548 C 211.705 177.711 184.987 180 156.566 180 C 128.146 180 101.434 177.711 81.371 173.548 C 61.133 169.379 50 163.762 50 157.76 C 50 152.136 59.892 146.806 77.893 142.722 L 78.213 143.133 C 60.326 147.198 50.494 152.358 50.494 157.76 C 50.494 160.631 53.257 163.442 58.71 166.111 C 64.05 168.72 71.692 171.069 81.437 173.079 C 101.501 177.234 128.159 179.518 156.566 179.518 C 184.973 179.518 211.632 177.234 231.702 173.079 C 241.44 171.069 249.056 168.72 254.396 166.111 C 259.849 163.442 262.612 160.631 262.612 157.76 C 262.612 152.365 252.787 147.184 234.926 143.146 L 235.24 142.729 C 253.254 146.813 263.133 152.143 263.133 157.76 Z" style="" bx:origin="0.502034 -0.743656"/>
      <path class="cls-1" d="M 155.732 86.563 L 155.732 51.614 C 155.722 50.364 154.331 49.592 153.228 50.227 C 152.99 50.363 152.791 50.555 152.648 50.786 L 123.14 99.181 C 122.662 99.966 123.232 100.963 124.167 100.976 C 124.34 100.978 124.51 100.944 124.668 100.877 L 154.704 88.051 C 155.32 87.801 155.724 87.215 155.732 86.563 Z" style="" bx:origin="1.0387 1.275107"/>
      <path class="cls-1" d="M 123.2 106.129 L 153.236 123.574 C 154.336 124.212 155.73 123.446 155.745 122.196 C 155.745 122.192 155.745 122.188 155.745 122.184 L 155.745 92.122 C 155.742 90.942 154.494 90.159 153.396 90.647 L 123.36 104.028 C 122.501 104.389 122.363 105.524 123.112 106.07 C 123.141 106.092 123.17 106.111 123.2 106.129 Z" style="" bx:origin="1.037892 0.735658"/>
      <path class="cls-1" d="M 154.931 131.266 L 125.93 114.721 C 125.126 114.254 124.106 114.812 124.094 115.726 C 124.091 115.975 124.168 116.22 124.315 116.424 L 152.748 156.605 C 153.465 157.635 155.054 157.52 155.608 156.398 C 155.717 156.176 155.773 155.932 155.772 155.685 L 155.772 132.668 C 155.766 132.089 155.446 131.555 154.931 131.266 Z" style="" bx:origin="1.038764 0.010465"/>
      <path class="cls-1" d="M 157.414 86.563 L 157.414 51.614 C 157.424 50.364 158.815 49.592 159.918 50.227 C 160.156 50.363 160.355 50.555 160.498 50.786 L 190.006 99.181 C 190.487 99.964 189.921 100.964 188.986 100.98 C 188.808 100.982 188.633 100.947 188.471 100.877 L 158.435 88.051 C 157.819 87.802 157.417 87.215 157.414 86.563 Z" style="" bx:origin="-0.012635 1.275007"/>
      <path class="cls-1" d="M 189.939 106.129 L 159.904 123.574 C 158.809 124.212 157.419 123.453 157.401 122.207 C 157.401 122.2 157.401 122.192 157.401 122.184 L 157.401 92.122 C 157.399 90.943 158.646 90.157 159.743 90.647 L 189.812 104.028 C 190.665 104.404 190.783 105.54 190.024 106.074 C 189.996 106.094 189.968 106.112 189.939 106.129 Z" style="" bx:origin="-0.012105 0.735638"/>
      <path class="cls-1" d="M 158.215 131.266 L 187.216 114.721 C 188.02 114.254 189.039 114.812 189.052 115.726 C 189.055 115.975 188.978 116.22 188.831 116.424 L 160.397 156.605 C 159.68 157.635 158.092 157.52 157.538 156.398 C 157.429 156.176 157.372 155.932 157.374 155.685 L 157.374 132.668 C 157.377 132.088 157.698 131.553 158.215 131.266 Z" style="" bx:origin="-0.011805 0.010465"/>
    </g>
  </g>
</svg>